<?xml version="1.0" encoding="utf-8"?>
<!-- Generator: Adobe Illustrator 26.0.1, SVG Export Plug-In . SVG Version: 6.00 Build 0)  -->
<svg version="1.1" id="Layer_1" xmlns="http://www.w3.org/2000/svg" xmlns:xlink="http://www.w3.org/1999/xlink" x="0px" y="0px"
	 viewBox="0 0 360 200" style="enable-background:new 0 0 360 200;" xml:space="preserve">
<style type="text/css">
	.black{fill:#662D91;}
	.medium{fill:#00FFFF;}
</style>
<path class="black" d="M110.9,65.4c0,0,15.6,32.4,15.6,58c0,25.7-27.9,23.4-31.3,32.4c-3.3,8.9-2.8,32.1-2.8,32.1l-47.7-17.6
	c0,0,7-26.8,9.2-41.3s19-12.3,24.6-23.4c5.6-11.2-15.6-48-15.6-48L110.9,65.4z"/>
<path class="black" d="M20.4,23.8c0,0,96,21.6,180.8,21.6s136.6-27.2,136.6-27.2l7.4,51.7c0,0-44.7,20.1-135.1,20.1
	S19.2,67.7,19.2,67.7L20.4,23.8z"/>
<path class="black" d="M91.2,187.2c0,0-6,9.1-1.7,11.3S91.2,187.2,91.2,187.2z"/>
<path class="black" d="M85.4,184.4c0,0-6,9.1-1.7,11.3S85.4,184.4,85.4,184.4z"/>
<path class="black" d="M79.2,182.2c0,0-6,9.1-1.7,11.3S79.2,182.2,79.2,182.2z"/>
<path class="black" d="M72.8,179.9c0,0-6,9.1-1.7,11.3S72.8,179.9,72.8,179.9z"/>
<path class="black" d="M66.4,177.4c0,0-6,9.1-1.7,11.3S66.4,177.4,66.4,177.4z"/>
<path class="black" d="M59.7,175.2c0,0-6,9.1-1.7,11.3S59.7,175.2,59.7,175.2z"/>
<path class="black" d="M53.5,172.4c0,0-6,9.1-1.7,11.3S53.5,172.4,53.5,172.4z"/>
<path class="black" d="M47.1,169.9c0,0-6,9.1-1.7,11.3C49.6,183.4,47.1,169.9,47.1,169.9z"/>
<path class="medium" d="M41.3,29.3c-5.7,14.1-7.5,27.5-4.1,40.2l22.3,3.7c-3.5-12.8-1.3-25.8,6-39.1L41.3,29.3z"/>
<path class="medium" d="M122.8,42c-5.7,14.1-7.5,27.5-4.1,40.2l38.3,4.5c1.3-11.3,7.1-26.4,7.1-41.3L122.8,42z"/>
<path class="medium" d="M219.9,88.5c4.9-15,8.6-29.6,7.4-42.4c17.8-0.8,35.6-2.8,53.2-6c1.5,14.9,0,29.8-4.5,44.7
	C257.5,87.2,238.8,88.5,219.9,88.5z"/>
<path class="medium" d="M121,95c0,0-12.1,8.8-40.5,7.4c1.8-8.9-6.1-24.4-6.1-24.4l43,5.9L121,95z"/>
<path class="medium" d="M74.3,112.6c0,0,10.3,17.6,39.9,30.6c-9.8,3.3-20.5,7.8-21.5,11.3c-19.3-7-28.5-16.7-35.3-30.7
	C62.3,117.1,74.3,112.6,74.3,112.6z"/>
</svg>
