<?xml version="1.0" encoding="utf-8"?>
<!-- Generator: Adobe Illustrator 26.0.1, SVG Export Plug-In . SVG Version: 6.00 Build 0)  -->
<svg version="1.1" id="Layer_1" xmlns="http://www.w3.org/2000/svg" xmlns:xlink="http://www.w3.org/1999/xlink" x="0px" y="0px"
	 viewBox="0 0 370 200" style="enable-background:new 0 0 370 200;" xml:space="preserve">
<style type="text/css">
	.light{fill:#FCEE21;}
	.black{fill:#662D91;}
	.medium{fill:#00FFFF;}
</style>
<g>
	<polygon class="light" points="369,8.4 335.5,9 320.4,43.5 175.6,44.4 198.2,9.3 19.3,10.2 18.2,200 243.7,199.8 257.9,167.4 
		271.5,199.7 358.9,200.1 342.2,44.4 	"/>
	<rect x="21.3" y="126.7" class="light" width="326" height="26.2"/>
	<polygon class="black" points="350.4,121.3 18.8,123.8 18.8,120.4 350,118.1 	"/>
	<polygon class="black" points="353.9,152 18.3,153.5 18.5,148.8 353.4,148.6 	"/>
	<polygon class="medium" points="175.6,44.4 250.1,96.5 320.4,43.5 	"/>
	<polygon class="black" points="205.7,65.6 232.2,43 209.9,69.2 	"/>
	<polygon class="black" points="287.2,69.2 256.8,43.5 291.4,65.6 	"/>
	<polygon class="black" points="264.3,60.8 246.2,81.5 231.1,62.8 231.1,43.5 256.8,43.5 	"/>
	<polygon class="black" points="247.6,62.5 232.2,84.8 250.1,96.5 265.2,84.8 	"/>
	<rect x="230.4" y="114" class="black" width="50.6" height="43.9"/>
	<rect x="243.4" y="123.3" class="light" width="27.2" height="27.2"/>
	<rect x="61.5" y="121.8" class="black" width="4.7" height="27.5"/>
	<rect x="79.3" y="121.8" class="black" width="4.7" height="27.5"/>
	<rect x="142.2" y="121.8" class="black" width="4.7" height="27.5"/>
	<rect x="160.1" y="121.8" class="black" width="4.7" height="27.5"/>
	<rect x="310.8" y="121.8" class="black" width="4.7" height="27.5"/>
	<rect x="328.6" y="121.8" class="black" width="4.7" height="27.5"/>
</g>
</svg>
