<?xml version="1.0" encoding="utf-8"?>
<!-- Generator: Adobe Illustrator 25.4.1, SVG Export Plug-In . SVG Version: 6.00 Build 0)  -->
<svg version="1.1" id="Layer_1" xmlns="http://www.w3.org/2000/svg" xmlns:xlink="http://www.w3.org/1999/xlink" x="0px" y="0px"
	 viewBox="0 0 360 200" style="enable-background:new 0 0 360 200;" xml:space="preserve">
	 <style type="text/css">
		.medium{fill:#00FFFF;}
	.regular{fill:#FF0000;}
	.black{fill:#662D91;}
	.light{fill:#FCEE21;}
</style>
<polygon class="black" points="228,52.3 178.1,21.8 186.8,100.5 235.1,75.6 286.9,95.4 279.9,6 "/>
<polygon class="light" points="20,11.4 168.8,30.4 189.7,199.5 20,198.7 "/>
<polygon class="light" points="293.5,29.3 293.5,199.5 359.9,199.5 337,19.2 "/>
<polygon class="black" points="110.4,32.6 90.3,77.3 149.5,96.2 112.7,125.3 154,199.5 128.3,125.3 167.3,89.5 104.8,70.6 "/>
<polygon class="black" points="310.2,194.5 338.1,101.8 314.7,92.9 332.6,78.4 316.9,27 321.4,75 300.2,92.9 325.9,109.6 "/>
</svg>
