<?xml version="1.0" encoding="utf-8"?>
<!-- Generator: Adobe Illustrator 25.4.1, SVG Export Plug-In . SVG Version: 6.00 Build 0)  -->
<svg version="1.1" id="Layer_1" xmlns="http://www.w3.org/2000/svg" xmlns:xlink="http://www.w3.org/1999/xlink" x="0px" y="0px"
	 viewBox="0 0 240 500" style="enable-background:new 0 0 240 500;" xml:space="preserve">
<style type="text/css">
		.medium{fill:#00FFFF;}
	.regular{fill:#FF0000;}
	.black{fill:#662D91;}
	.light{fill:#FCEE21;}
</style>
<path class="black" d="M172.1,29.1c0,0,0.5,88.6,0.5,110.9S144,173.8,144,214s0,170.8,0,170.8l85.4,3.1c0,0-2.6-123.9-2.6-171.8
	s-24.7-40.5-29.7-74.5c-5-33.9-7.3-109.3-7.3-109.3s7.8-0.5,8.3-2.1c0.5-1.6,0-17.2,0-17.2l-42.7,3.1l2.6,12.5L172.1,29.1z"/>
<polygon class="regular" points="156.7,211.7 212.5,213.5 217.1,314.7 154.3,317.6 "/>
</svg>
