<?xml version="1.0" encoding="utf-8"?>
<!-- Generator: Adobe Illustrator 26.0.1, SVG Export Plug-In . SVG Version: 6.00 Build 0)  -->
<svg version="1.1" id="Layer_1" xmlns="http://www.w3.org/2000/svg" xmlns:xlink="http://www.w3.org/1999/xlink" x="0px" y="0px"
	 viewBox="0 0 800 800" style="enable-background:new 0 0 800 800;" xml:space="preserve">
<style type="text/css">
	.st0{fill:#00FFFF;}
	.st1{fill:#FF0000;}
	.st2{fill:#662D91;}
	.st3{fill:#FCEE21;}
</style>
<g id="Layer_2_00000062913949966627425780000003742623369880105111_">
	<rect class="st0" width="800" height="800"/>
</g>
<path class="st1" d="M287.7,342.5c0,0-35.2,48.4-102.3-3s-7.5-196.6-7.5-196.6s-194.4,179.9-127.4,277s213,18,213,18L287.7,342.5z"
	/>
<path class="st1" d="M543.1,355.8c0,0,15.3,38.2,68.8,15.3c53.5-22.9,38.2-130,38.2-130s99.4,153,38.2,206.5s-145.3-24-145.3-24
	L543.1,355.8z"/>
<path class="st1" d="M409,26.1c-32.8,61.3-147.2,55.6-147.2,160.2s0,512.8,0,512.8l338.8,0.8C600.6,700,566.5,201.5,409,26.1z"/>
<path class="st1" d="M577.9,623.8c0,0,17-42.4,76.3-17s42.4,144.1,42.4,144.1S806.8,581.4,739,522c-67.8-59.3-152.6,25.4-152.6,25.4
	L577.9,623.8z"/>
<path class="st1" d="M570,688.3c0,0,9.2-22.9,41.2-9.2s22.9,77.8,22.9,77.8s59.5-91.6,22.9-123.6S574.6,647,574.6,647L570,688.3z"/>
<path class="st1" d="M266.4,623.2c0,0-18.9-47.3-85.2-18.9s-47.3,160.9-47.3,160.9s-123-189.3-47.3-255.5s179.7,29.7,179.7,29.7
	L266.4,623.2z"/>
<path class="st1" d="M275.2,695.2c0,0-10.2-25.6-46-10.2c-35.8,15.3-25.6,86.9-25.6,86.9s-66.4-102.2-25.6-138
	c40.9-35.8,92,15.3,92,15.3L275.2,695.2z"/>
<path class="st2" d="M552,435.6c0,0,0-113.6-113.6-113.6S324.8,435.6,324.8,435.6H552z"/>
<path class="st0" d="M433.8,431.1c0,0,0-50-50-50s-50,50-50,50H433.8z"/>
<g>
	<path class="st3" d="M310.9,240.3c0,0,0,54.5,54.5,54.5s54.5-54.5,54.5-54.5L310.9,240.3L310.9,240.3z"/>
	<path class="st3" d="M419.9,240.3c0,0,0,54.5,54.5,54.5s54.5-54.5,54.5-54.5L419.9,240.3L419.9,240.3z"/>
	<path class="st2" d="M481,240.3c0,0,0,19.8,19.8,19.8s19.8-19.8,19.8-19.8H481z"/>
	<path class="st2" d="M366.7,240.3c0,0,0,22.1,22.1,22.1s22.1-22.1,22.1-22.1L366.7,240.3L366.7,240.3z"/>
</g>
<g>
	<path class="st3" d="M291.6,168.3c0,0,0,54.5,54.5,54.5s54.5-54.5,54.5-54.5H291.6z"/>
	<path class="st3" d="M400.7,168.3c0,0,0,54.5,54.5,54.5s54.5-54.5,54.5-54.5H400.7z"/>
	<path class="st2" d="M461.7,168.3c0,0,0,19.8,19.8,19.8s19.8-19.8,19.8-19.8H461.7z"/>
	<path class="st2" d="M347.5,168.3c0,0,0,22.1,22.1,22.1s22.1-22.1,22.1-22.1H347.5z"/>
</g>
<path class="st2" d="M324.8,455.8c0,0,80.2,38.9,106.9,38.9s26.7-23.4,26.7-23.4s13.4,23.4,40.1,23.4s53.5-54.5,53.5-54.5
	s-26.7,38.9-53.5,38.9s-40.1-23.4-40.1-23.4s0,23.4-26.7,23.4C405,479.1,324.8,455.8,324.8,455.8z"/>
<path class="st2" d="M285.5,149.1c0,0,78.3-25.9,104.4-25.9s26.1,15.5,26.1,15.5s13.1-15.5,39.2-15.5s52.2,36.3,52.2,36.3
	s-26.1-25.9-52.2-25.9S416,149.1,416,149.1s0-15.5-26.1-15.5S285.5,149.1,285.5,149.1z"/>
<g>
	<g>
		<path class="st2" d="M622,241.2c-12.1,5.7-11.9,17.7-7.5,26.9s15.4,13.1,24.5,8.7s13.1-15.4,8.7-24.5
			C643.4,243.1,634.7,235.1,622,241.2z M636.7,272c-7.3,3.5-14.3-0.8-17.7-8.1c-3.5-7.3-2.1-14.9,5.2-18.4s16-0.4,19.5,6.9
			C647.1,259.8,644,268.5,636.7,272z"/>
		<path class="st2" d="M666.9,217c-13.1,6.3-12.8,18.9-8.4,28.1c4.4,9.2,15.4,13.1,24.5,8.7c9.2-4.4,10.8-16.6,6.4-25.8
			C685.1,218.8,675.5,212.8,666.9,217z M680.7,248.9c-7.3,3.5-16,0.4-19.5-6.9c-3.5-7.3-0.7-17,6.6-20.4c7.3-3.5,14,0.5,17.5,7.8
			C688.8,236.6,688,245.4,680.7,248.9z"/>
		<path class="st2" d="M643.4,248.5c0,0-1.1-6.9,4.9-9.8c6-2.9,10.8,1.3,10.8,1.3l1,7.1c0,0-6.1-5.5-8.7-4.3
			c-2.5,1.2-3.8,9.5-3.8,9.5L643.4,248.5z"/>
		<path class="st2" d="M612.8,262.1c0,0-33.4,5.7-36.2,10.4c-2.7,4.7,2.2,12.5,2.2,12.5l4.6-0.7c0,0-5.2-4.3-2.7-8.9
			s34.8-8.8,34.8-8.8L612.8,262.1z"/>
		<path class="st2" d="M659.6,222.4c0,0-32.6-9.3-37.1-6.3c-4.5,3.1-3.4,12.3-3.4,12.3l4.5,1.4c0,0-2.8-6.2,1.4-9.2
			s35.1,7.1,35.1,7.1L659.6,222.4z"/>
	</g>
	<polygon class="st2" points="628.6,246 622.2,265.3 623.2,267.2 630,245.8 	"/>
	<polygon class="st2" points="630.2,251.8 625,268.6 626.1,269.9 632.1,250.5 	"/>
	<polygon class="st2" points="672.3,223.8 665.9,243.1 666.9,245.1 673.7,223.6 	"/>
	<polygon class="st2" points="673.8,229.6 668.7,246.4 669.8,247.7 675.8,228.3 	"/>
</g>
</svg>
