<?xml version="1.0" encoding="utf-8"?>
<!-- Generator: Adobe Illustrator 26.0.1, SVG Export Plug-In . SVG Version: 6.00 Build 0)  -->
<svg version="1.1" id="Layer_1" xmlns="http://www.w3.org/2000/svg" xmlns:xlink="http://www.w3.org/1999/xlink" x="0px" y="0px"
	 viewBox="0 0 800 800" style="enable-background:new 0 0 800 800;" xml:space="preserve">
<style type="text/css">
	.st0{fill:#00FFFF;}
	.st1{fill:#FF0000;}
	.st2{fill:#662D91;}
	.st3{fill:#FCEE21;}
</style>
<g id="Layer_2_00000062913949966627425780000003742623369880105111_">
	<rect class="st0" width="800" height="800"/>
</g>
<path class="st1" d="M287.7,342.5c0,0-35.2,48.4-102.3-3s-7.5-196.6-7.5-196.6s-194.4,179.9-127.4,277s213,18,213,18L287.7,342.5z"
	/>
<path class="st1" d="M543.1,355.8c0,0,15.3,38.2,68.8,15.3c53.5-22.9,38.2-130,38.2-130s99.4,153,38.2,206.5s-145.3-24-145.3-24
	L543.1,355.8z"/>
<path class="st1" d="M409,26.1c-32.8,61.3-147.2,55.6-147.2,160.2s0,512.8,0,512.8l338.8,0.8C600.6,700,566.5,201.5,409,26.1z"/>
<path class="st1" d="M577.9,623.8c0,0,17-42.4,76.3-17s42.4,144.1,42.4,144.1S806.8,581.4,739,522c-67.8-59.3-152.6,25.4-152.6,25.4
	L577.9,623.8z"/>
<path class="st1" d="M570,688.3c0,0,9.2-22.9,41.2-9.2s22.9,77.8,22.9,77.8s59.5-91.6,22.9-123.6S574.6,647,574.6,647L570,688.3z"/>
<path class="st1" d="M266.4,623.2c0,0-18.9-47.3-85.2-18.9s-47.3,160.9-47.3,160.9s-123-189.3-47.3-255.5s179.7,29.7,179.7,29.7
	L266.4,623.2z"/>
<path class="st1" d="M275.2,695.2c0,0-10.2-25.6-46-10.2c-35.8,15.3-25.6,86.9-25.6,86.9s-66.4-102.2-25.6-138
	c40.9-35.8,92,15.3,92,15.3L275.2,695.2z"/>
<path class="st2" d="M552,435.6c0,0,0-113.6-113.6-113.6S324.8,435.6,324.8,435.6H552z"/>
<path class="st0" d="M433.8,431.1c0,0,0-50-50-50s-50,50-50,50H433.8z"/>
<g>
	<path class="st3" d="M310.9,240.3c0,0,0,54.5,54.5,54.5s54.5-54.5,54.5-54.5L310.9,240.3L310.9,240.3z"/>
	<path class="st3" d="M419.9,240.3c0,0,0,54.5,54.5,54.5s54.5-54.5,54.5-54.5L419.9,240.3L419.9,240.3z"/>
	<path class="st2" d="M481,240.3c0,0,0,19.8,19.8,19.8s19.8-19.8,19.8-19.8H481z"/>
	<path class="st2" d="M366.7,240.3c0,0,0,22.1,22.1,22.1s22.1-22.1,22.1-22.1L366.7,240.3L366.7,240.3z"/>
</g>
<g>
	<path class="st3" d="M291.6,168.3c0,0,0,54.5,54.5,54.5s54.5-54.5,54.5-54.5H291.6z"/>
	<path class="st3" d="M400.7,168.3c0,0,0,54.5,54.5,54.5s54.5-54.5,54.5-54.5H400.7z"/>
	<path class="st2" d="M461.7,168.3c0,0,0,19.8,19.8,19.8s19.8-19.8,19.8-19.8H461.7z"/>
	<path class="st2" d="M347.5,168.3c0,0,0,22.1,22.1,22.1s22.1-22.1,22.1-22.1H347.5z"/>
</g>
<path class="st2" d="M324.8,455.8c0,0,80.2,38.9,106.9,38.9s26.7-23.4,26.7-23.4s13.4,23.4,40.1,23.4s53.5-54.5,53.5-54.5
	s-26.7,38.9-53.5,38.9s-40.1-23.4-40.1-23.4s0,23.4-26.7,23.4C405,479.1,324.8,455.8,324.8,455.8z"/>
<path class="st2" d="M285.5,149.1c0,0,78.3-25.9,104.4-25.9s26.1,15.5,26.1,15.5s13.1-15.5,39.2-15.5s52.2,36.3,52.2,36.3
	s-26.1-25.9-52.2-25.9S416,149.1,416,149.1s0-15.5-26.1-15.5S285.5,149.1,285.5,149.1z"/>
<path class="st2" d="M393.9,92.5c-30.9,0-96.3,14.2-96.3,14.2s-9.8-28.2-7-35.1S337.8,52,391,52s73,13.8,80.4,19.6s-9,32.9-9,32.9
	S437.8,92.5,393.9,92.5z"/>
<g>
	<path class="st2" d="M298.4,74.1c0,0,32.7-61.3,85.3-61.3S465,78.1,465,78.1L298.4,74.1z"/>
</g>
<path class="st2" d="M352.4,563.3c0,0,15.6,32.4,15.6,58c0,25.7-27.9,23.4-31.3,32.4c-3.3,8.9-2.8,32.1-2.8,32.1l-47.7-17.6
	c0,0,7-26.8,9.2-41.3s19-12.3,24.6-23.4c5.6-11.2-15.6-48-15.6-48L352.4,563.3z"/>
<path class="st2" d="M261.9,521.7c0,0,96,21.6,180.8,21.6s136.6-27.2,136.6-27.2l7.4,51.7c0,0-44.7,20.1-135.1,20.1
	s-190.9-22.3-190.9-22.3L261.9,521.7z"/>
<path class="st2" d="M332.7,685.1c0,0-6,9.1-1.7,11.3S332.7,685.1,332.7,685.1z"/>
<path class="st2" d="M326.9,682.3c0,0-6,9.1-1.7,11.3S326.9,682.3,326.9,682.3z"/>
<path class="st2" d="M320.7,680.1c0,0-6,9.1-1.7,11.3S320.7,680.1,320.7,680.1z"/>
<path class="st2" d="M314.3,677.8c0,0-6,9.1-1.7,11.3S314.3,677.8,314.3,677.8z"/>
<path class="st2" d="M307.9,675.3c0,0-6,9.1-1.7,11.3S307.9,675.3,307.9,675.3z"/>
<path class="st2" d="M301.2,673.1c0,0-6,9.1-1.7,11.3S301.2,673.1,301.2,673.1z"/>
<path class="st2" d="M295,670.3c0,0-6,9.1-1.7,11.3S295,670.3,295,670.3z"/>
<path class="st2" d="M288.6,667.8c0,0-6,9.1-1.7,11.3C291.1,681.3,288.6,667.8,288.6,667.8z"/>
<path class="st0" d="M395.1,87.5c-27.7,0-94.3,15.6-94.3,15.6s-7.9-24-5.3-30.1s49.8-19.5,97.4-19.5s68.4,13,75,18.1
	S461,99.8,461,99.8S434.3,87.5,395.1,87.5z"/>
<path class="st2" d="M351.6,19.8c1.2,10.9,9.1,5,9.1,5S356.1,36.2,369,36c12.9-0.3,11.9-9.8,11.9-9.8s2.5,8.1,10.9,2.2
	s5.9-7.5,5.9-7.5s13.1,12.2,16.6-2.3S400.4,7.2,400.4,7.2s2.7-4.8-4.1-6.8c-6.7-2-11.1,5.2-11.1,5.2s-2.5-4.9-7.4-5.4s-7,4.6-7,4.6
	s-2.7-5.6-7.7-4.2s-1.7,11.2-1.7,11.2S350.5,8.9,351.6,19.8z"/>
<path class="st0" d="M354.5,19.4c1,9.3,7.8,3.2,7.8,3.2s-4.2,11.6,6.8,11.3c11-0.2,11.5-10,11.5-10s3.8,7.8,11,2.8s5.7-7.4,5.7-7.4
	s10.9,10.4,13.9-2c2.9-12.4-12.7-7.3-12.7-7.3s2.7-6.1-3.1-7.8c-5.7-1.7-10.2,7.3-10.2,7.3s-3.7-6.5-8-6.9s-6,7.8-6,7.8
	s-2.5-8.5-6.8-7.3s-1,11-1,11S353.5,10.1,354.5,19.4z"/>
<path class="st2" d="M305.1,65.5c-3.1,12.6-1,23.3,4.5,36.5l22.7-3.8c-6.3-12.8-8.6-26-7.3-39.6L305.1,65.5z"/>
<path class="st2" d="M348.6,54.7c-2.1,13.6-0.6,27.4,4.3,39.8l32.1-3.6c-5.3-12.1-4.2-25.1-3.9-39.3L348.6,54.7z"/>
<path class="st2" d="M432.7,55.7c1.4,14,0.3,25.1-6.4,36.6l30.2,9c4.1-11.3,5.6-23,3.8-35.3L432.7,55.7z"/>
<path class="st0" d="M282.8,527.2c-5.7,14.1-7.5,27.5-4.1,40.2l22.3,3.7c-3.5-12.8-1.3-25.8,6-39.1L282.8,527.2z"/>
<path class="st0" d="M364.3,539.9c-5.7,14.1-7.5,27.5-4.1,40.2l38.3,4.5c1.3-11.3,7.1-26.4,7.1-41.3L364.3,539.9z"/>
<path class="st0" d="M461.4,586.4c4.9-15,8.6-29.6,7.4-42.4c17.8-0.8,35.6-2.8,53.2-6c1.5,14.9,0,29.8-4.5,44.7
	C499,585.1,480.3,586.4,461.4,586.4z"/>
<path class="st0" d="M362.5,592.9c0,0-12.1,8.8-40.5,7.4c1.8-8.9-6.1-24.4-6.1-24.4l43,5.9L362.5,592.9z"/>
<path class="st0" d="M315.8,610.5c0,0,10.3,17.6,39.9,30.6c-9.8,3.3-20.5,7.8-21.5,11.3c-19.3-7-28.5-16.7-35.3-30.7
	C303.8,615,315.8,610.5,315.8,610.5z"/>
</svg>
