<?xml version="1.0" encoding="utf-8"?>
<!-- Generator: Adobe Illustrator 26.0.1, SVG Export Plug-In . SVG Version: 6.00 Build 0)  -->
<svg version="1.1" id="Layer_1" xmlns="http://www.w3.org/2000/svg" xmlns:xlink="http://www.w3.org/1999/xlink" x="0px" y="0px"
	 viewBox="0 0 800 800" style="enable-background:new 0 0 800 800;" xml:space="preserve">
<style type="text/css">
	.st0{fill:#00FFFF;}
	.st1{fill:#FF0000;}
	.st2{fill:#662D91;}
	.st3{fill:#FCEE21;}
</style>
<g id="Layer_2_00000062913949966627425780000003742623369880105111_">
	<rect class="st0" width="800" height="800"/>
</g>
<path class="st1" d="M287.7,342.5c0,0-35.2,48.4-102.3-3s-7.5-196.6-7.5-196.6s-194.4,179.9-127.4,277s213,18,213,18L287.7,342.5z"
	/>
<path class="st1" d="M543.1,355.8c0,0,15.3,38.2,68.8,15.3c53.5-22.9,38.2-130,38.2-130s99.4,153,38.2,206.5s-145.3-24-145.3-24
	L543.1,355.8z"/>
<path class="st1" d="M409,26.1c-32.8,61.3-147.2,55.6-147.2,160.2s0,512.8,0,512.8l338.8,0.8C600.6,700,566.5,201.5,409,26.1z"/>
<path class="st1" d="M577.9,623.8c0,0,17-42.4,76.3-17s42.4,144.1,42.4,144.1S806.8,581.4,739,522c-67.8-59.3-152.6,25.4-152.6,25.4
	L577.9,623.8z"/>
<path class="st1" d="M570,688.3c0,0,9.2-22.9,41.2-9.2s22.9,77.8,22.9,77.8s59.5-91.6,22.9-123.6S574.6,647,574.6,647L570,688.3z"/>
<path class="st1" d="M266.4,623.2c0,0-18.9-47.3-85.2-18.9s-47.3,160.9-47.3,160.9s-123-189.3-47.3-255.5s179.7,29.7,179.7,29.7
	L266.4,623.2z"/>
<path class="st1" d="M275.2,695.2c0,0-10.2-25.6-46-10.2c-35.8,15.3-25.6,86.9-25.6,86.9s-66.4-102.2-25.6-138
	c40.9-35.8,92,15.3,92,15.3L275.2,695.2z"/>
<path class="st2" d="M552,435.6c0,0,0-113.6-113.6-113.6S324.8,435.6,324.8,435.6H552z"/>
<path class="st0" d="M433.8,431.1c0,0,0-50-50-50s-50,50-50,50H433.8z"/>
<g>
	<path class="st3" d="M310.9,240.3c0,0,0,54.5,54.5,54.5s54.5-54.5,54.5-54.5L310.9,240.3L310.9,240.3z"/>
	<path class="st3" d="M419.9,240.3c0,0,0,54.5,54.5,54.5s54.5-54.5,54.5-54.5L419.9,240.3L419.9,240.3z"/>
	<path class="st2" d="M481,240.3c0,0,0,19.8,19.8,19.8s19.8-19.8,19.8-19.8H481z"/>
	<path class="st2" d="M366.7,240.3c0,0,0,22.1,22.1,22.1s22.1-22.1,22.1-22.1L366.7,240.3L366.7,240.3z"/>
</g>
<g>
	<path class="st3" d="M291.6,168.3c0,0,0,54.5,54.5,54.5s54.5-54.5,54.5-54.5H291.6z"/>
	<path class="st3" d="M400.7,168.3c0,0,0,54.5,54.5,54.5s54.5-54.5,54.5-54.5H400.7z"/>
	<path class="st2" d="M461.7,168.3c0,0,0,19.8,19.8,19.8s19.8-19.8,19.8-19.8H461.7z"/>
	<path class="st2" d="M347.5,168.3c0,0,0,22.1,22.1,22.1s22.1-22.1,22.1-22.1H347.5z"/>
</g>
<path class="st2" d="M324.8,455.8c0,0,80.2,38.9,106.9,38.9s26.7-23.4,26.7-23.4s13.4,23.4,40.1,23.4s53.5-54.5,53.5-54.5
	s-26.7,38.9-53.5,38.9s-40.1-23.4-40.1-23.4s0,23.4-26.7,23.4C405,479.1,324.8,455.8,324.8,455.8z"/>
<path class="st2" d="M285.5,149.1c0,0,78.3-25.9,104.4-25.9s26.1,15.5,26.1,15.5s13.1-15.5,39.2-15.5s52.2,36.3,52.2,36.3
	s-26.1-25.9-52.2-25.9S416,149.1,416,149.1s0-15.5-26.1-15.5S285.5,149.1,285.5,149.1z"/>
<path class="st2" d="M258,103c0,0,7-92,23-92s51,42,65,42s43-26.9,63-26.9s69,85.9,69,85.9L258,103z"/>
<path class="st0" d="M258.9,81.5c0,0,79.2,13.4,127.5,13.4s77.8-7.8,77.8-7.8l13.6,20.8h-221L258.9,81.5z"/>
<path class="st2" d="M211,117h321V79c0,0-38.8,24.9-128.9,24.9S208,84,208,84L211,117z"/>
<polygon class="st3" points="611.9,509.8 578.4,510.4 563.3,544.9 418.5,545.8 441.1,510.7 262.2,511.6 261.1,699.8 486.9,700.9 
	500.8,668.8 514.2,701 601.8,701.5 585.1,545.8 "/>
<rect x="264.2" y="628.1" class="st3" width="326" height="26.2"/>
<polygon class="st2" points="593.3,622.7 261.7,625.2 261.7,621.8 592.9,619.5 "/>
<polygon class="st2" points="596.8,653.4 261.2,654.9 261.4,650.2 596.3,650 "/>
<polygon class="st0" points="418.5,545.8 493,597.9 563.3,544.9 "/>
<polygon class="st2" points="448.6,567 475.1,544.4 452.8,570.6 "/>
<polygon class="st2" points="530.1,570.6 499.7,544.9 534.3,567 "/>
<polygon class="st2" points="507.2,562.2 489.1,582.9 474,564.2 474,544.9 499.7,544.9 "/>
<polygon class="st2" points="490.5,563.9 475.1,586.2 493,597.9 508.1,586.2 "/>
<rect x="473.3" y="615.4" class="st2" width="50.6" height="43.9"/>
<rect x="486.3" y="624.7" class="st3" width="27.2" height="27.2"/>
<rect x="304.4" y="623.2" class="st2" width="4.7" height="27.5"/>
<rect x="322.2" y="623.2" class="st2" width="4.7" height="27.5"/>
<rect x="385.1" y="623.2" class="st2" width="4.7" height="27.5"/>
<rect x="403" y="623.2" class="st2" width="4.7" height="27.5"/>
<rect x="553.7" y="623.2" class="st2" width="4.7" height="27.5"/>
<rect x="571.5" y="623.2" class="st2" width="4.7" height="27.5"/>
</svg>
