<?xml version="1.0" encoding="utf-8"?>
<!-- Generator: Adobe Illustrator 26.0.1, SVG Export Plug-In . SVG Version: 6.00 Build 0)  -->
<svg version="1.1" id="Layer_1" xmlns="http://www.w3.org/2000/svg" xmlns:xlink="http://www.w3.org/1999/xlink" x="0px" y="0px"
	 viewBox="0 0 800 800" style="enable-background:new 0 0 800 800;" xml:space="preserve">
<style type="text/css">
	.st0{fill:#00FFFF;}
	.st1{fill:#FF0000;}
	.st2{fill:#662D91;}
	.st3{fill:#FCEE21;}
</style>
<g id="Layer_2_00000062913949966627425780000003742623369880105111_">
	<rect class="st0" width="800" height="800"/>
</g>
<path class="st1" d="M287.7,342.5c0,0-35.2,48.4-102.3-3s-7.5-196.6-7.5-196.6s-194.4,179.9-127.4,277s213,18,213,18L287.7,342.5z"
	/>
<path class="st1" d="M543.1,355.8c0,0,15.3,38.2,68.8,15.3c53.5-22.9,38.2-130,38.2-130s99.4,153,38.2,206.5s-145.3-24-145.3-24
	L543.1,355.8z"/>
<path class="st1" d="M409,26.1c-32.8,61.3-147.2,55.6-147.2,160.2s0,512.8,0,512.8l338.8,0.8C600.6,700,566.5,201.5,409,26.1z"/>
<path class="st1" d="M577.9,623.8c0,0,17-42.4,76.3-17s42.4,144.1,42.4,144.1S806.8,581.4,739,522c-67.8-59.3-152.6,25.4-152.6,25.4
	L577.9,623.8z"/>
<path class="st1" d="M570,688.3c0,0,9.2-22.9,41.2-9.2s22.9,77.8,22.9,77.8s59.5-91.6,22.9-123.6S574.6,647,574.6,647L570,688.3z"/>
<path class="st1" d="M266.4,623.2c0,0-18.9-47.3-85.2-18.9s-47.3,160.9-47.3,160.9s-123-189.3-47.3-255.5s179.7,29.7,179.7,29.7
	L266.4,623.2z"/>
<path class="st1" d="M275.2,695.2c0,0-10.2-25.6-46-10.2c-35.8,15.3-25.6,86.9-25.6,86.9s-66.4-102.2-25.6-138
	c40.9-35.8,92,15.3,92,15.3L275.2,695.2z"/>
<path class="st2" d="M552,435.6c0,0,0-113.6-113.6-113.6S324.8,435.6,324.8,435.6H552z"/>
<path class="st0" d="M433.8,431.1c0,0,0-50-50-50s-50,50-50,50H433.8z"/>
<g>
	<path class="st3" d="M310.9,240.3c0,0,0,54.5,54.5,54.5s54.5-54.5,54.5-54.5L310.9,240.3L310.9,240.3z"/>
	<path class="st3" d="M419.9,240.3c0,0,0,54.5,54.5,54.5s54.5-54.5,54.5-54.5L419.9,240.3L419.9,240.3z"/>
	<path class="st2" d="M481,240.3c0,0,0,19.8,19.8,19.8s19.8-19.8,19.8-19.8H481z"/>
	<path class="st2" d="M366.7,240.3c0,0,0,22.1,22.1,22.1s22.1-22.1,22.1-22.1L366.7,240.3L366.7,240.3z"/>
</g>
<g>
	<path class="st3" d="M291.6,168.3c0,0,0,54.5,54.5,54.5s54.5-54.5,54.5-54.5H291.6z"/>
	<path class="st3" d="M400.7,168.3c0,0,0,54.5,54.5,54.5s54.5-54.5,54.5-54.5H400.7z"/>
	<path class="st2" d="M461.7,168.3c0,0,0,19.8,19.8,19.8s19.8-19.8,19.8-19.8H461.7z"/>
	<path class="st2" d="M347.5,168.3c0,0,0,22.1,22.1,22.1s22.1-22.1,22.1-22.1H347.5z"/>
</g>
<path class="st2" d="M324.8,455.8c0,0,80.2,38.9,106.9,38.9s26.7-23.4,26.7-23.4s13.4,23.4,40.1,23.4s53.5-54.5,53.5-54.5
	s-26.7,38.9-53.5,38.9s-40.1-23.4-40.1-23.4s0,23.4-26.7,23.4C405,479.1,324.8,455.8,324.8,455.8z"/>
<path class="st2" d="M285.5,149.1c0,0,78.3-25.9,104.4-25.9s26.1,15.5,26.1,15.5s13.1-15.5,39.2-15.5s52.2,36.3,52.2,36.3
	s-26.1-25.9-52.2-25.9S416,149.1,416,149.1s0-15.5-26.1-15.5S285.5,149.1,285.5,149.1z"/>
<g>
	<path class="st2" d="M638.6,264.9l3.2,1.6c5.4-19.8,13.9-39.1,25.4-57.4l-2.9-1.1C651.4,225.9,642.5,244.8,638.6,264.9z"/>
	<path class="st0" d="M639.5,264.5l1.6,0.6c5.3-19,14.2-38,25.5-56.9l-1.6-0.1C652.8,226.1,643.9,244.8,639.5,264.5z"/>
</g>
<path class="st1" d="M669.2,185.6c0,0-1.2-16.2-6.9-15.4c-5.7,0.7,1.4,15,1.4,15s-8.4-14.2-13.8-8.2c-5.4,6,11.2,12.8,11.2,12.8
	s-16.7-6.2-16.4,1.6s15.8,3.4,15.8,3.4s-16.9,6.4-12.8,12.2c4.1,5.8,14-4.7,14-4.7s-10.1,12.6-1.4,16.3c8.7,3.7,8.5-14.3,8.5-14.3
	s1.4,17.6,8.7,15s-2.3-16.6-2.3-16.6s8.6,11.7,12.3,6.7c3.7-5-9-11.3-9-11.3s17.4,8.8,17-0.6c-0.4-9.4-16.3-3.3-16.3-3.3
	s17.2-5.8,12.7-11.8c-4.6-6-14.3,7-14.3,7s7.3-15,1-18C672.1,168.4,669.2,185.6,669.2,185.6z"/>
<circle class="st3" cx="669.7" cy="194.7" r="7.3"/>
<g>
	<path class="st2" d="M649.2,234.2c0,0-14.7-5.8-11.9-25.1C647.5,209.8,649.2,234.2,649.2,234.2z"/>
	<path class="st0" d="M648.3,232.7c0,0-12.4-6.2-10.1-22.2C646.6,211.2,648.3,232.7,648.3,232.7z"/>
	<path class="st2" d="M640.9,215c0,0,5.7,12.6,7.8,18.4C645.9,231.4,640.9,215,640.9,215z"/>
</g>
<g>
	<path class="st2" d="M649.8,241.6c0,0,14.5,6.3,26.2-9.4C668.2,225.5,649.8,241.6,649.8,241.6z"/>
	<path class="st0" d="M651.5,241.2c0,0,13.2,4.4,22.8-8.6C667.9,227.1,651.5,241.2,651.5,241.2z"/>
	<path class="st2" d="M669.3,233.8c0,0-12.9,4.9-18.5,7.5C654.1,241.9,669.3,233.8,669.3,233.8z"/>
</g>
</svg>
