<?xml version="1.0" encoding="utf-8"?>
<!-- Generator: Adobe Illustrator 25.4.1, SVG Export Plug-In . SVG Version: 6.00 Build 0)  -->
<svg version="1.1" id="Layer_1" xmlns="http://www.w3.org/2000/svg" xmlns:xlink="http://www.w3.org/1999/xlink" x="0px" y="0px"
	 viewBox="0 0 800 400" style="enable-background:new 0 0 800 400;" xml:space="preserve">
<style type="text/css">
		.medium{fill:#00FFFF;}
	.regular{fill:#FF0000;}
	.black{fill:#662D91;}
	.light{fill:#FCEE21;}
</style>
<path class="black" d="M407.6,168.8c0,0,0,54.5,51.4,54.5s53.2-43.6,51.4-54.5c-1.8-10.9-13.7-32.9-54.5-34.7S407.6,168.8,407.6,168.8
	z"/>
<path class="black" d="M302,162.8c0,0,0,54.5,54.5,54.5s54.5-54.5,54.5-54.5H302z"/>
<path class="light" d="M430.4,99.9c43.4,6.8,74.1,31.3,74.1,31.3l6.1-13.7C510.5,117.5,469.6,90.9,430.4,99.9z"/>
<path class="light" d="M413.9,168.2c1.7-25.9-7.6-49.3-21.5-65.1c8.1,19.9,9.9,38.3,10,49.5L279.1,163L413.9,168.2z"/>
<path class="light" d="M359.6,163.9c0,0,0,22.1,22.1,22.1s22.1-22.1,22.1-22.1H359.6z"/>
<path class="black" d="M427.7,265.1c0,0,0,54.5,51.4,54.5s53.7-41.4,51.4-54.5c-2.3-13.1-13.7-32.9-54.5-34.7
	C435.2,228.5,427.7,265.1,427.7,265.1z"/>
<path class="black" d="M322.1,259.1c0,0,0,54.5,54.5,54.5s54.5-54.5,54.5-54.5H322.1z"/>
<path class="light" d="M379.7,260.2c0,0,0,22.1,22.1,22.1s22.1-22.1,22.1-22.1H379.7z"/>
<path class="light" d="M440.9,224.5c43.7-4.1,79.5,12.2,79.5,12.2l2.5-14.8C522.9,221.9,476.7,206.2,440.9,224.5z"/>
<path class="light" d="M430.1,263.6c1.7-25.9-7.6-49.3-21.5-65.1c8.1,19.9,9.9,38.3,10,49.5l-123.4,10.4L430.1,263.6z"/>
<path class="light" d="M524.5,265.5c-1.3-24.8-39.1-16.1-36.5-2C490.5,277.6,525.8,290.4,524.5,265.5z"/>
<path class="light" d="M505.1,169c-1.3-24.8-39.1-16.1-36.5-2C471.1,181,506.3,193.8,505.1,169z"/>
</svg>
