<?xml version="1.0" encoding="utf-8"?>
<!-- Generator: Adobe Illustrator 25.4.1, SVG Export Plug-In . SVG Version: 6.00 Build 0)  -->
<svg version="1.1" id="Layer_1" xmlns="http://www.w3.org/2000/svg" xmlns:xlink="http://www.w3.org/1999/xlink" x="0px" y="0px"
	 viewBox="0 0 800 400" style="enable-background:new 0 0 800 400;" xml:space="preserve">
<style type="text/css">
		.medium{fill:#00FFFF;}
	.regular{fill:#FF0000;}
	.black{fill:#662D91;}
	.light{fill:#FCEE21;}
</style>
<g>
	<path class="light" d="M310.4,240.8c0,0,0,54.5,54.5,54.5s46.9-79.9,46.9-79.9L310.4,240.8L310.4,240.8z"/>
	<path class="light" d="M473.9,295.3c54.5,0,54.5-54.5,54.5-54.5l-116.6-25.4C411.8,215.3,419.4,295.3,473.9,295.3z"/>
	<path class="regular" d="M376.9,245.8c0,0,8.9-20.7,20.3-13c11.4,7.6-20.8,43.2-20.8,43.2s-25-24.3-19.2-33.3S376.9,245.8,376.9,245.8z
		"/>
	<path class="regular" d="M474.6,248c0,0-15.1-16.7-23.4-5.9s33.5,34.3,33.5,34.3s15.9-31,7.5-37.7C483.8,232.1,474.6,248,474.6,248z"/>
</g>
<g>
	<path class="light" d="M291.1,168.8c0,0,0,54.5,54.5,54.5s69.9-73.7,69.9-73.7L291.1,168.8z"/>
	<path class="light" d="M415.5,149.6c0,0-15.3,73.7,39.2,73.7s54.5-54.5,54.5-54.5L415.5,149.6z"/>
	<path class="regular" d="M368,176.2c0,0,9.6-20.4,20.8-12.4c11.2,8-22.2,42.5-22.2,42.5s-24.2-25.1-18.1-33.9S368,176.2,368,176.2z"/>
	<path class="regular" d="M449.3,177.8c0,0-10-20.2-21-12c-11,8.2,22.9,42.1,22.9,42.1s23.7-25.5,17.5-34.2
		C462.4,164.9,449.3,177.8,449.3,177.8z"/>
</g>
<path class="regular" d="M514.7,94.1c0,0-3.3-22.3-16.3-17.9c-13,4.4,8.9,47.1,8.9,47.1s30.4-17,27.1-27.2
	C531.1,86,514.7,94.1,514.7,94.1z"/>
<path class="regular" d="M538.1,143.1c0,0-2.7-18.5-13.5-14.9c-10.8,3.7,7.4,39.2,7.4,39.2s25.3-14.1,22.6-22.6S538.1,143.1,538.1,143.1
	z"/>
<path class="regular" d="M275.7,72.8c0,0-11.6-19.3-21.9-10.2s26.4,40,26.4,40s21.5-27.4,14.5-35.6C287.8,58.9,275.7,72.8,275.7,72.8z"
	/>
<path class="black" d="M314.7,150.9c71.2-2.5,90.4-54.4,90.4-54.4l6.7,15.9C411.8,112.4,387.5,164.3,314.7,150.9z"/>
<path class="black" d="M513.9,156.7c-71.2-2.5-90.4-54.4-90.4-54.4l-6.7,15.9C416.8,118.2,441.1,170.1,513.9,156.7z"/>
</svg>
