<?xml version="1.0" encoding="utf-8"?>
<!-- Generator: Adobe Illustrator 25.4.1, SVG Export Plug-In . SVG Version: 6.00 Build 0)  -->
<svg version="1.1" id="Layer_1" xmlns="http://www.w3.org/2000/svg" xmlns:xlink="http://www.w3.org/1999/xlink" x="0px" y="0px"
	 viewBox="0 0 800 300" style="enable-background:new 0 0 800 300;" xml:space="preserve">
<style type="text/css">
	.st0{fill:#662D91;}
</style>
<path class="st0" d="M404.6,121.9c0,0,38.2,24,28.1,60.8c-10.1,36.8-56.9,59.2-56.9,59.2s24.2-31.3,36.6-60.8
	S404.6,121.9,404.6,121.9z"/>
<path class="st0" d="M507.4,226.3c0,0-39.8-7.3-42.7-40.6s29.8-66.7,29.8-66.7s-10.7,33.3-12.1,61.5
	C481.1,208.6,507.4,226.3,507.4,226.3z"/>
<path class="st0" d="M429.9,158.7c0,0,35-27.5,40.8-9.7c5.8,17.7-15.8,22.7-15.8,22.7s23.5,19.7,10,30.1
	c-13.5,10.4-44.6-19.4-44.6-19.4s17.2,11.3,27.9,5.2s-17.8-13.8-17.8-13.8s23.5-4.3,22.9-10.5S429.9,158.7,429.9,158.7z"/>
</svg>
