<?xml version="1.0" encoding="utf-8"?>
<!-- Generator: Adobe Illustrator 25.4.1, SVG Export Plug-In . SVG Version: 6.00 Build 0)  -->
<svg version="1.1" id="Layer_1" xmlns="http://www.w3.org/2000/svg" xmlns:xlink="http://www.w3.org/1999/xlink" x="0px" y="0px"
	 viewBox="0 0 360 200" style="enable-background:new 0 0 360 200;" xml:space="preserve">
<style type="text/css">
	.st0{fill:#FF0000;}
	.st1{display:none;}
	.st2{display:inline;fill:#FCEE21;}
	.st3{display:inline;fill:#1B1464;}
</style>
<g id="guide">
	<path class="st0" d="M358.8,199.8c0,0-5.9-86.3-24.2-199.8H20c0,107.5,0,199,0,199L358.8,199.8z"/>
	<path class="st0" d="M-21.3,199.8c0,0-5.9-86.3-24.2-199.8h-314.6c0,107.5,0,199,0,199L-21.3,199.8z"/>
</g>
<g id="Layer_1_00000138561970705028351040000005731923466085582976_" class="st1">
	<polygon class="st2" points="20,122.9 352.1,130.1 359.2,199.5 20,199.2 	"/>
	<path class="st3" d="M20,0.1c0,0,71.7,23.1,88.1,43.9s24.6,112.4,24.6,112.4s4.1,26-14.1,26c-20.5,0-21.2-24.2-21.2-24.2
		s-5-79.5-15.4-95.5S20,25.4,20,25.4V0.1z"/>
	<path class="st2" d="M20,3.5c0,0,75.4,27.5,86.9,44.7s21.2,105.3,21.2,105.3s2.6,20.5-11.2,20.5s-16.4-20.8-16.4-20.8
		s-7.1-83-15.3-93.8S20,21,20,21V3.5z"/>
	<path class="st3" d="M334.6,0c0,0-62.8,18.8-66.5,38.9c-3.8,20,28.2,110.1,28.2,110.1s7.8,26,24.6,21.6c14-3.7,10.4-25.7,10.4-25.7
		s-35.7-77.8-30.1-96.4s37-25.5,37-25.5L334.6,0z"/>
	<path class="st2" d="M335.2,3.4c0,0-59.8,17.2-63.5,37.3S300,147.5,300,147.5s4.5,20.8,19,20.5c14.5-0.4,9.3-22,9.3-22
		S291.5,65.6,297,47c5.6-18.6,40.6-28.5,40.6-28.5L335.2,3.4z"/>
	<path class="st3" d="M113.1,144.1c-10.2,0-13,26,4.1,26S123.3,144.1,113.1,144.1z"/>
	<path class="st3" d="M313.7,136.3c-10.2,0-13,26,4.1,26S324,136.3,313.7,136.3z"/>
	<path class="st3" d="M156.2,138.8l115.8-0.3c0,0,14.5,55-56.1,55S156.2,138.8,156.2,138.8z"/>
	<path class="st2" d="M263.7,141.5c0,0,12.8,47.6-49.3,47.6s-52.5-47.3-52.5-47.3"/>
</g>
</svg>
