<?xml version="1.0" encoding="utf-8"?>
<!-- Generator: Adobe Illustrator 25.4.1, SVG Export Plug-In . SVG Version: 6.00 Build 0)  -->
<svg version="1.1" id="Layer_1" xmlns="http://www.w3.org/2000/svg" xmlns:xlink="http://www.w3.org/1999/xlink" x="0px" y="0px"
	 viewBox="0 0 240 500" style="enable-background:new 0 0 240 500;" xml:space="preserve">
<style type="text/css">
		.medium{fill:#00FFFF;}
	.regular{fill:#FF0000;}
	.black{fill:#662D91;}
	.light{fill:#FCEE21;}
</style>
<path class="black" d="M212.6,222.6l-49.7-14.5V51.8L135,54.6v137.3l-24,27.9c0,0,25.3-11.7,30.5,18.2c29.2,33.8,73.3,34.3,73.3,34.3
	L212.6,222.6z"/>
<path class="black" d="M131.1,65.8l1.7,25.1c0,0-20.1-3.9-19-13.4S131.1,65.8,131.1,65.8z"/>
<polygon class="black" points="155.1,137.8 178.6,152.3 179.1,219.8 156.2,213.1 "/>
<path class="black" d="M174.7,166.2c0,0,26.2,5,26.8,19.5c0.6,14.5-27.9,32.9-27.9,32.9s14-16.7,16.7-30.1s-15.6-14.5-15.6-14.5V166.2
	z"/>
<path class="medium" d="M142.3,154.4l-1.1,41.8c0,0,2.8,6.7,11.2,7.6c8.4,0.9,10.6-6.3,10.6-6.3l3.9-43.6L142.3,154.4z"/>
<polygon class="black" points="149,159.3 147.3,194.1 144.2,193.3 145.4,159.3 "/>
<polygon class="black" points="153.2,159.5 152.3,195 154.8,195 156.8,159.5 "/>
<polygon class="black" points="160.4,159.3 164.1,159.3 161.5,194.7 159,195 "/>
</svg>
