<?xml version="1.0" encoding="utf-8"?>
<!-- Generator: Adobe Illustrator 26.0.1, SVG Export Plug-In . SVG Version: 6.00 Build 0)  -->
<svg version="1.1" id="Layer_1" xmlns="http://www.w3.org/2000/svg" xmlns:xlink="http://www.w3.org/1999/xlink" x="0px" y="0px"
	 viewBox="0 0 800 125" style="enable-background:new 0 0 800 125;" xml:space="preserve">
<style type="text/css">
	.black{fill:#662D91;}
	.light{fill:#FCEE21;}
	.medium{fill:#00FFFF;}
</style>
<g>
	<path class="black" d="M374,49.1c0,0-48.6,2.6-48.6-10.1S347,4.4,347,4.4s-91.1,16.5-91.1,38.9s87,50.4,87,50.4L374,49.1z"/>
	<path class="light" d="M359.4,49.4c0,0-46.4,3.4-46.4-7.8s24.6-28.8,24.6-28.8S268.1,29.1,268.1,45s67.3,38.9,67.3,38.9L359.4,49.4z"
		/>
</g>
<g>
	<path class="black" d="M401,48.5c0,0,48.6-2.8,48.6-10.1S424.4,4.7,424.4,4.7s94.8,15.2,94.8,38.1s-87.1,50.3-87.1,50.3L401,48.5z"/>
	<path class="light" d="M415.5,48.8c0,0,39.1-0.5,46.4-7.8s-24.6-28.7-24.6-28.7s69.5,11.9,69.5,32.1s-67.3,38.9-67.3,38.9L415.5,48.8
		z"/>
</g>
<path class="black" d="M295.3,74.7h180.8v34.8c0,0-20.1,10.2-73.3,10.2s-107.5-10.2-107.5-10.2V74.7L295.3,74.7z"/>
<g>
	<path class="black" d="M304,82.9c0,0,32.7-61.3,85.3-61.3s81.3,65.3,81.3,65.3L304,82.9z"/>
	<path class="medium" d="M325.9,71.2c0,0,24.7-46.3,64.4-46.3s61.4,49.3,61.4,49.3"/>
	<path class="black" d="M414,74.8c-2.4-35.7-14-49.2-14-49.2s2.9,0.4,5.3,0.4c13.1,14.6,18,49.4,18,49.4S420.5,75,414,74.8z"/>
	<path class="black" d="M387.9,74.8c-2.4-35.7-14-49.2-14-49.2s2.9,0.4,5.3,0.4c13.1,14.6,18,49.4,18,49.4S394.3,75,387.9,74.8z"/>
	<g>
		<ellipse class="black" cx="403.9" cy="61.5" rx="5.3" ry="4.3"/>
		<ellipse class="medium" cx="403.9" cy="61" rx="3.4" ry="2.7"/>
	</g>
	<g>
		<ellipse class="black" cx="400" cy="46" rx="5.3" ry="4.3"/>
		<ellipse class="medium" cx="400" cy="45.4" rx="3.4" ry="2.7"/>
	</g>
	<g>
		<ellipse class="black" cx="394.9" cy="31.9" rx="5.3" ry="4.3"/>
		<ellipse class="medium" cx="394.9" cy="31.3" rx="3.4" ry="2.7"/>
	</g>
</g>
</svg>
