<?xml version="1.0" encoding="utf-8"?>
<!-- Generator: Adobe Illustrator 26.0.1, SVG Export Plug-In . SVG Version: 6.00 Build 0)  -->
<svg version="1.1" id="Layer_1" xmlns="http://www.w3.org/2000/svg" xmlns:xlink="http://www.w3.org/1999/xlink" x="0px" y="0px"
	 viewBox="0 0 800 125" style="enable-background:new 0 0 800 125;" xml:space="preserve">
<style type="text/css">
	.black{fill:#662D91;}
	.medium{fill:#00FFFF;}
</style>
<path class="black" d="M392.8,102.3c-30.9,0-96.3,14.2-96.3,14.2s-9.8-28.2-7-35.1s47.2-19.6,100.4-19.6s73,13.8,80.4,19.6
	s-9,32.9-9,32.9S436.7,102.3,392.8,102.3z"/>
<g>
	<path class="black" d="M297.3,83.9c0,0,32.7-61.3,85.3-61.3s81.3,65.3,81.3,65.3L297.3,83.9z"/>
</g>
<path class="medium" d="M394,97.3c-27.7,0-94.3,15.6-94.3,15.6s-7.9-24-5.3-30.1s49.8-19.5,97.4-19.5s68.4,13,75,18.1
	s-6.9,28.2-6.9,28.2S433.2,97.3,394,97.3z"/>
<path class="black" d="M350.5,29.6c1.2,10.9,9.1,5,9.1,5S355,46,367.9,45.8c12.9-0.3,11.9-9.8,11.9-9.8s2.5,8.1,10.9,2.2
	s5.9-7.5,5.9-7.5s13.1,12.2,16.6-2.3S399.3,17,399.3,17s2.7-4.8-4.1-6.8c-6.7-2-11.1,5.2-11.1,5.2s-2.5-4.9-7.4-5.4s-7,4.6-7,4.6
	S367,9,362,10.4s-1.7,11.2-1.7,11.2S349.4,18.7,350.5,29.6z"/>
<path class="medium" d="M353.4,29.2c1,9.3,7.8,3.2,7.8,3.2S357,44,368,43.7c11-0.2,11.5-10,11.5-10s3.8,7.8,11,2.8s5.7-7.4,5.7-7.4
	s10.9,10.4,13.9-2c2.9-12.4-12.7-7.3-12.7-7.3s2.7-6.1-3.1-7.8c-5.7-1.7-10.2,7.3-10.2,7.3s-3.7-6.5-8-6.9s-6,7.8-6,7.8
	s-2.5-8.5-6.8-7.3s-1,11-1,11S352.4,19.9,353.4,29.2z"/>
<path class="black" d="M304,75.3c-3.1,12.6-1,23.3,4.5,36.5l22.7-3.8c-6.3-12.8-8.6-26-7.3-39.6L304,75.3z"/>
<path class="black" d="M347.5,64.5c-2.1,13.6-0.6,27.4,4.3,39.8l32.1-3.6c-5.3-12.1-4.2-25.1-3.9-39.3L347.5,64.5z"/>
<path class="black" d="M431.6,65.5c1.4,14,0.3,25.1-6.4,36.6l30.2,9c4.1-11.3,5.8-23.7,4-36L431.6,65.5z"/>
</svg>
