<?xml version="1.0" encoding="utf-8"?>
<!-- Generator: Adobe Illustrator 25.4.1, SVG Export Plug-In . SVG Version: 6.00 Build 0)  -->
<svg version="1.1" id="Layer_1" xmlns="http://www.w3.org/2000/svg" xmlns:xlink="http://www.w3.org/1999/xlink" x="0px" y="0px"
	 viewBox="0 0 800 300" style="enable-background:new 0 0 800 300;" xml:space="preserve">
<style type="text/css">
		.medium{fill:#00FFFF;}
	.regular{fill:#FF0000;}
	.black{fill:#662D91;}
	.light{fill:#FCEE21;}
</style>
<g>
	<path class="black" d="M327,211.9c0,0,13.2-32.7,30.7-30.7s9,24,21,22.5s9-24,24-25.4c15-1.5,11.5,20.5,26.2,19.5
		c14.7-1,26.2-30.9,44.2-29.2s8.4,29.5,14.2,29.9s21.2-28.7,36.7-24c15.5,4.7-3.5,29.2,3,32.2c6.5,3,26.9-21.7,26.9-21.7
		s-12.5,35.7-27.7,35.9c-15.2,0.2,0.7-21.2-11.2-26.9c-12-5.7-13.5,20.2-27.7,18.7s2.2-26.9-15-29.9c-17.2-3-23.2,26.4-44.9,27.7
		c-21.7,1.2-13.2-21.7-23.2-21.7c-10,0-9,26.9-26.2,27.7c-17.2,0.7-10.2-23.2-21.7-24.7S327,211.9,327,211.9z"/>
	<path class="black" d="M345.8,214.1c0,0-8.8,0.2-14.1-3.3c-5.3-3.5-2.3-21.2-2.3-21.2s-10,15.9-3,24.6S345.8,214.1,345.8,214.1z"/>
	<path class="black" d="M535.7,185.8c0,0,8.7-1.2,14.4,1.7c5.7,2.9,4.7,20.8,4.7,20.8s8.1-16.9,0.1-24.8
		C547,175.7,535.7,185.8,535.7,185.8z"/>
</g>
</svg>
