<?xml version="1.0" encoding="utf-8"?>
<!-- Generator: Adobe Illustrator 25.4.1, SVG Export Plug-In . SVG Version: 6.00 Build 0)  -->
<svg version="1.1" id="Layer_1" xmlns="http://www.w3.org/2000/svg" xmlns:xlink="http://www.w3.org/1999/xlink" x="0px" y="0px"
	 viewBox="0 0 800 300" style="enable-background:new 0 0 800 300;" xml:space="preserve">
<style type="text/css">
		.medium{fill:#00FFFF;}
	.regular{fill:#FF0000;}
	.black{fill:#662D91;}
	.light{fill:#FCEE21;}
</style>
<g>
	<path class="black" d="M502.8,152.4c0,0-87.8,7.2-108.3-15.3l-1.9,20.4c16,19.1,104.5,5.7,104.5,5.7L502.8,152.4z"/>
	<path class="black" d="M497.5,185.5c0,0-69.2,18.8-89,3.8l1.5,16.6c15.6,12.9,84.5-10.9,84.5-10.9L497.5,185.5z"/>
	<path class="black" d="M530.8,130.7c-24.8-7-73.9,80.3-16.6,86.6S555.6,137.8,530.8,130.7z M518.6,197.1c-34.9-3.9-5-57,10.1-52.8
		C543.8,148.6,553.5,201,518.6,197.1z"/>
	<path class="black" d="M528.9,152.6c-10.6-3-31.6,34.4-7.1,37.1C546.4,192.5,539.6,155.6,528.9,152.6z"/>
</g>
</svg>
