<?xml version="1.0" encoding="utf-8"?>
<!-- Generator: Adobe Illustrator 26.0.1, SVG Export Plug-In . SVG Version: 6.00 Build 0)  -->
<svg version="1.1" id="Layer_1" xmlns="http://www.w3.org/2000/svg" xmlns:xlink="http://www.w3.org/1999/xlink" x="0px" y="0px"
	 viewBox="0 0 240 500" style="enable-background:new 0 0 240 500;" xml:space="preserve">
<style type="text/css">
	.black{fill:#662D91;}
	.regular{fill:#FF0000;}
</style>
<g>
	<polygon class="black" points="80.1,247.2 119.1,310.9 136.5,298 100.2,228.7 	"/>
	<polygon class="black" points="39.5,203.6 63.5,239.9 51.8,249.9 30.6,214.2 	"/>
	<polygon class="regular" points="35.2,191.1 73.2,250.3 101.4,222.6 72.2,171.2 	"/>
	<path class="black" d="M74.3,169.4c48.6-49.7,59.2-108.3,59.2-108.3l75.9,132.3c0,0-68.1-12.8-106,26.2
		C103.9,219,84.3,186.1,74.3,169.4z"/>
	<path class="black" d="M168.2,111.3l18.6,32.4c0,0,6.7-15.6-0.7-25.7S168.2,111.3,168.2,111.3z"/>
</g>
</svg>
