<?xml version="1.0" encoding="utf-8"?>
<!-- Generator: Adobe Illustrator 26.0.1, SVG Export Plug-In . SVG Version: 6.00 Build 0)  -->
<svg version="1.1" id="Layer_1" xmlns="http://www.w3.org/2000/svg" xmlns:xlink="http://www.w3.org/1999/xlink" x="0px" y="0px"
	 viewBox="0 0 240 500" style="enable-background:new 0 0 240 500;" xml:space="preserve">
<style type="text/css">
	.black{fill:#662D91;}
	.medium{fill:#00FFFF;}
	.regular{fill:#FF0000;}
	.light{fill:#FCEE21;}
</style>
<g>
	<path class="black" d="M89.8,275.1l4.4,2.2c7.5-27.3,19.1-53.9,35-79.1l-4-1.5C107.4,221.4,95.1,247.3,89.8,275.1z"/>
	<path class="medium" d="M91,274.5l2.2,0.9c7.4-26.2,19.5-52.3,35.1-78.4l-2.2-0.1C109.4,221.6,97.1,247.4,91,274.5z"/>
</g>
<path class="regular" d="M132,165.7c0,0-1.7-22.3-9.5-21.3s1.9,20.6,1.9,20.6s-11.5-19.6-19-11.3c-7.4,8.3,15.4,17.7,15.4,17.7
	s-22.9-8.6-22.6,2.2c0.4,10.8,21.8,4.7,21.8,4.7s-23.3,8.8-17.7,16.8s19.2-6.5,19.2-6.5s-14,17.3-1.9,22.4s11.7-19.7,11.7-19.7
	s1.9,24.2,11.9,20.6c10-3.6-3.2-22.8-3.2-22.8s11.8,16.2,16.9,9.2c5.1-6.9-12.4-15.6-12.4-15.6s24,12.2,23.5-0.8
	c-0.5-12.9-22.4-4.5-22.4-4.5s23.7-7.9,17.4-16.3c-6.3-8.3-19.7,9.6-19.7,9.6s10.1-20.6,1.4-24.7C135.9,142,132,165.7,132,165.7z"/>
<circle class="light" cx="132.6" cy="178.3" r="10"/>
<g>
	<path class="black" d="M104.4,232.8c0,0-20.3-7.9-16.4-34.6C102.1,199.2,104.4,232.8,104.4,232.8z"/>
	<path class="medium" d="M103.1,230.7c0,0-17.1-8.6-13.9-30.6C100.8,201,103.1,230.7,103.1,230.7z"/>
	<path class="black" d="M93,206.3c0,0,7.8,17.3,10.7,25.4C99.9,228.9,93,206.3,93,206.3z"/>
</g>
<g>
	<path class="black" d="M105.3,242.9c0,0,19.9,8.7,36.1-12.9C130.6,220.8,105.3,242.9,105.3,242.9z"/>
	<path class="medium" d="M107.6,242.4c0,0,18.1,6,31.5-11.8C130.2,222.9,107.6,242.4,107.6,242.4z"/>
	<path class="black" d="M132.1,232.3c0,0-17.8,6.8-25.5,10.4C111.2,243.3,132.1,232.3,132.1,232.3z"/>
</g>
</svg>
