<?xml version="1.0" encoding="utf-8"?>
<!-- Generator: Adobe Illustrator 26.0.1, SVG Export Plug-In . SVG Version: 6.00 Build 0)  -->
<svg version="1.1" id="Layer_1" xmlns="http://www.w3.org/2000/svg" xmlns:xlink="http://www.w3.org/1999/xlink" x="0px" y="0px"
	 viewBox="0 0 240 500" style="enable-background:new 0 0 240 500;" xml:space="preserve">
<style type="text/css">
	.black{fill:#662D91;}
</style>
<g>
	<g>
		<path class="black" d="M76.2,238.3c-12.1,5.7-11.9,17.7-7.5,26.9s15.4,13.1,24.5,8.7s13.1-15.4,8.7-24.5
			C97.6,240.2,88.9,232.2,76.2,238.3z M90.9,269.1c-7.3,3.5-14.3-0.8-17.7-8.1c-3.5-7.3-2.1-14.9,5.2-18.4s16-0.4,19.5,6.9
			C101.2,256.9,98.2,265.6,90.9,269.1z"/>
		<path class="black" d="M121.1,214.1c-13.1,6.3-12.8,18.9-8.4,28.1c4.4,9.2,15.4,13.1,24.5,8.7c9.2-4.4,10.8-16.6,6.4-25.8
			C139.2,215.9,129.7,209.9,121.1,214.1z M134.9,246c-7.3,3.5-16,0.4-19.5-6.9c-3.5-7.3-0.7-17,6.6-20.4c7.3-3.5,14,0.5,17.5,7.8
			C143,233.7,142.2,242.5,134.9,246z"/>
		<path class="black" d="M97.6,245.6c0,0-1.1-6.9,4.9-9.8c6-2.9,10.8,1.3,10.8,1.3l1,7.1c0,0-6.1-5.5-8.7-4.3
			c-2.5,1.2-3.8,9.5-3.8,9.5L97.6,245.6z"/>
		<path class="black" d="M67,259.2c0,0-33.4,5.7-36.2,10.4c-2.7,4.7,2.2,12.5,2.2,12.5l4.6-0.7c0,0-5.2-4.3-2.7-8.9s34.8-8.8,34.8-8.8
			L67,259.2z"/>
		<path class="black" d="M113.8,219.5c0,0-32.6-9.3-37.1-6.3c-4.5,3.1-3.4,12.3-3.4,12.3l4.5,1.4c0,0-2.8-6.2,1.4-9.2
			s35.1,7.1,35.1,7.1L113.8,219.5z"/>
	</g>
	<polygon class="black" points="82.8,243.1 76.4,262.4 77.4,264.3 84.2,242.9 	"/>
	<polygon class="black" points="84.4,248.9 79.2,265.7 80.2,267 86.2,247.6 	"/>
	<polygon class="black" points="126.5,220.9 120.1,240.2 121.1,242.2 127.9,220.7 	"/>
	<polygon class="black" points="128,226.7 122.9,243.5 124,244.8 130,225.4 	"/>
</g>
</svg>
