<?xml version="1.0" encoding="utf-8"?>
<!-- Generator: Adobe Illustrator 25.4.1, SVG Export Plug-In . SVG Version: 6.00 Build 0)  -->
<svg version="1.1" id="Layer_1" xmlns="http://www.w3.org/2000/svg" xmlns:xlink="http://www.w3.org/1999/xlink" x="0px" y="0px"
	 viewBox="0 0 240 500" style="enable-background:new 0 0 240 500;" xml:space="preserve">
	 <style type="text/css">
		.medium{fill:#00FFFF;}
	.regular{fill:#FF0000;}
	.black{fill:#662D91;}
	.light{fill:#FCEE21;}
</style>
<polygon class="light" points="16.9,285.2 207.3,285.2 223.2,221.8 159.7,213.8 167.6,261.4 16.9,269.4 "/>
<polygon class="light" points="16.9,285.2 207.3,285.2 223.2,221.8 159.7,213.8 167.6,261.4 16.9,269.4 "/>
<path class="black" d="M167.2,195.9c-18.2,0-33-14.8-33-33s14.8-33,33-33s33,14.8,33,33S185.4,195.9,167.2,195.9z M167.2,135.9
	c-14.9,0-27,12.1-27,27s12.1,27,27,27s27-12.1,27-27S182,135.9,167.2,135.9z"/>
<path class="black" d="M210.6,128.7c-10.9,0-19.8-8.9-19.8-19.8s8.9-19.8,19.8-19.8s19.8,8.9,19.8,19.8S221.5,128.7,210.6,128.7z
	 M210.6,92.7c-8.9,0-16.2,7.3-16.2,16.2s7.3,16.2,16.2,16.2s16.2-7.3,16.2-16.2S219.5,92.7,210.6,92.7z"/>
<path class="black" d="M167.2,92.7c-10.9,0-19.8-8.9-19.8-19.8s8.9-19.8,19.8-19.8S187,62,187,72.9S178.1,92.7,167.2,92.7z
	 M167.2,56.7c-8.9,0-16.2,7.3-16.2,16.2s7.3,16.2,16.2,16.2s16.2-7.3,16.2-16.2S176.1,56.7,167.2,56.7z"/>
</svg>
